<svg width="15" height="11" viewBox="0 0 15 11" fill="none" xmlns="http://www.w3.org/2000/svg">
<path d="M0.0772054 5.74673C0.117647 5.80563 0.213235 5.86845 0.286765 5.88808C0.360294 5.91164 2.30147 6.34356 4.59559 6.854C6.88971 7.36444 8.79779 7.7885 8.83088 7.80028C8.89338 7.81991 8.89706 7.922 8.89706 9.22952C8.89706 10.0109 8.91176 10.6823 8.93015 10.7334C9.01471 10.965 9.25735 11.0671 9.45588 10.9532C9.58088 10.8826 14.9522 5.74673 14.9779 5.67605C15.0074 5.5936 15.0074 5.40513 14.9779 5.32267C14.9522 5.25199 9.57721 0.116153 9.45221 0.0454762C9.26103 -0.0644653 9.00735 0.0336974 8.9375 0.245728C8.91176 0.324257 8.89706 0.870038 8.89706 1.77313C8.89706 3.07672 8.89338 3.17881 8.83088 3.19844C8.79779 3.21022 6.88971 3.63428 4.59559 4.14473C2.30147 4.65517 0.360294 5.09101 0.286765 5.11064C0.110294 5.15776 -2.48679e-07 5.31089 -2.40441e-07 5.49936C-2.36665e-07 5.58575 0.0294111 5.68783 0.0772054 5.74673ZM5.80147 4.69836C7.73529 4.27037 9.375 3.89343 9.44118 3.86595C9.65441 3.77564 9.66912 3.67747 9.66912 2.4367C9.66912 1.83203 9.67647 1.33729 9.6875 1.33729C9.72426 1.33729 14.0441 5.46795 14.0441 5.49936C14.0441 5.5347 9.72426 9.66143 9.6875 9.66143C9.67647 9.66143 9.66912 9.1667 9.66912 8.56202C9.66912 7.32125 9.65441 7.22309 9.44118 7.13278C9.375 7.10529 7.73529 6.72835 5.80147 6.30036C3.86397 5.86845 2.27941 5.51114 2.27941 5.49936C2.27941 5.48758 3.86397 5.12635 5.80147 4.69836Z" fill="white"/>
</svg>
